<?xml version="1.0" encoding="UTF-8" standalone="no"?>
<!DOCTYPE svg PUBLIC "-//W3C//DTD SVG 1.1//EN" "http://www.w3.org/Graphics/SVG/1.1/DTD/svg11.dtd">
<svg width="100%" height="100%" viewBox="0 0 254 303" version="1.1" xmlns="http://www.w3.org/2000/svg" xmlns:xlink="http://www.w3.org/1999/xlink" xml:space="preserve" xmlns:serif="http://www.serif.com/" style="fill-rule:evenodd;clip-rule:evenodd;stroke-linejoin:round;stroke-miterlimit:2;">
    <g transform="matrix(1,0,0,1,-1504.757224,-178.195917)">
        <g id="Logo" transform="matrix(1,0,0,1,56.712824,20.833269)">
            <g transform="matrix(2.563913,0,0,2.563913,-955.266659,-2924.301301)">
                <path d="M944.474,1261.308C944.474,1242.85 947.891,1228.341 954.725,1217.782C961.559,1207.219 971.905,1201.938 985.763,1201.938C999.62,1201.938 1009.966,1207.194 1016.8,1217.706C1023.634,1228.215 1027.051,1242.654 1027.051,1261.024C1027.051,1278.826 1023.54,1293.125 1016.516,1303.919C1009.492,1314.712 999.241,1320.109 985.763,1320.109C971.715,1320.109 961.322,1314.925 954.582,1304.555C947.843,1294.182 944.474,1279.767 944.474,1261.308ZM963.837,1261.308C963.837,1274.834 965.498,1285.026 968.82,1291.883C972.142,1298.741 977.79,1302.17 985.763,1302.17C993.356,1302.17 998.909,1298.529 1002.421,1291.247C1005.932,1283.962 1007.688,1273.888 1007.688,1261.024C1007.688,1247.403 1006.027,1237.188 1002.705,1230.377C999.383,1223.567 993.736,1220.162 985.763,1220.162C977.79,1220.162 972.142,1223.638 968.82,1230.591C965.498,1237.544 963.837,1247.783 963.837,1261.308Z" style="fill:rgb(58,5,101);"/>
            </g>
            <g transform="matrix(10.579475,0,0,10.579475,201.922234,73.528943)">
                <path d="M117.955,34.106C118.116,34.267 118.729,34.313 118.894,34.241C119.324,34.052 119.701,33.761 120.105,33.522L141.205,13.594C141.389,13.417 141.53,13.191 141.627,12.956C141.671,12.848 141.927,12.227 141.627,11.497C141.581,11.386 141.317,10.744 140.564,10.434C140.335,10.34 140.082,10.293 139.834,10.293C139.716,10.293 138.999,10.293 138.466,10.858C131.823,17.891 125.11,24.856 118.539,31.956C118.22,32.301 118.009,32.737 117.82,33.167C117.748,33.332 117.793,33.944 117.955,34.106Z" style="fill:rgb(227,161,58);"/>
            </g>
            <g id="Bottom-block" serif:id="Bottom block" transform="matrix(10.579475,0,0,10.579475,201.98349,73.434637)">
                <path d="M121.634,32.266C121.244,31.546 120.792,30.602 120.519,29.742C121.791,28.377 123.08,27.013 124.36,25.655C124.489,26.881 125.087,28.967 125.087,28.967L121.634,32.266Z" style="fill:rgb(58,5,101);"/>
            </g>
        </g>
    </g>
</svg>
