<?xml version="1.0" encoding="UTF-8" standalone="no"?>
<!DOCTYPE svg PUBLIC "-//W3C//DTD SVG 1.1//EN" "http://www.w3.org/Graphics/SVG/1.1/DTD/svg11.dtd">
<svg width="100%" height="100%" viewBox="0 0 1288 254" version="1.1" xmlns="http://www.w3.org/2000/svg" xmlns:xlink="http://www.w3.org/1999/xlink" xml:space="preserve" xmlns:serif="http://www.serif.com/" style="fill-rule:evenodd;clip-rule:evenodd;stroke-linejoin:round;stroke-miterlimit:2;">
    <g transform="matrix(1,0,0,1,-988.26825,-2401.677473)">
        <g transform="matrix(1,0,0,1,677.082082,986.688036)">
            <g transform="matrix(1,0,0,1,-138.391434,348.159191)">
                <path d="M529.023,1163.497C549.145,1163.497 566.183,1167.436 580.136,1175.314C594.088,1183.192 601.065,1195.389 601.065,1211.904L548.386,1211.904C548.386,1206.399 545.918,1202.507 540.982,1200.229C537.565,1198.331 533.294,1197.382 528.169,1197.382C514.501,1197.382 507.667,1200.609 507.667,1207.063C507.667,1210.67 510.04,1213.233 514.785,1214.752C519.531,1216.27 527.314,1217.884 538.135,1219.592C551.423,1221.491 562.529,1223.721 571.451,1226.284C580.373,1228.847 588.156,1233.403 594.8,1239.952C601.444,1246.501 604.767,1255.661 604.767,1267.431C604.767,1286.604 597.6,1300.272 583.268,1308.435C568.935,1316.597 550.189,1320.679 527.03,1320.679C513.741,1320.679 501.212,1318.828 489.443,1315.126C477.673,1311.424 468.086,1305.682 460.683,1297.899C453.279,1290.116 449.578,1280.244 449.578,1268.285L502.256,1268.285L502.256,1269.424C502.446,1275.878 505.151,1280.387 510.372,1282.949C515.592,1285.512 521.145,1286.794 527.03,1286.794C542.786,1286.794 550.664,1283.092 550.664,1275.688C550.664,1271.892 548.196,1269.139 543.26,1267.431C538.325,1265.722 530.257,1263.919 519.057,1262.02C505.579,1259.742 494.521,1257.274 485.883,1254.617C477.246,1251.959 469.7,1247.451 463.246,1241.091C456.791,1234.732 453.564,1225.857 453.564,1214.467C453.564,1196.053 460.54,1182.955 474.493,1175.171C488.446,1167.388 506.623,1163.497 529.023,1163.497Z" style="fill:white;"/>
                <path d="M740.593,1317.262L736.891,1294.482C731.006,1302.645 723.27,1309.052 713.684,1313.702C704.097,1318.353 693.988,1320.679 683.358,1320.679C665.893,1320.679 652.794,1315.838 644.062,1306.157C635.33,1296.475 630.964,1282.522 630.964,1264.298L630.964,1166.914L687.629,1166.914L687.629,1257.464C687.629,1263.919 689.29,1269.092 692.612,1272.983C695.934,1276.875 700.633,1278.821 706.707,1278.821C713.731,1278.821 719.426,1276.543 723.792,1271.987C728.158,1267.431 730.342,1261.83 730.342,1255.186L730.342,1166.914L787.007,1166.914L787.007,1317.262L740.593,1317.262Z" style="fill:white;"/>
                <path d="M1021.072,1163.497C1038.157,1163.497 1050.97,1168.385 1059.513,1178.161C1068.056,1187.938 1072.327,1201.843 1072.327,1219.877L1072.327,1317.262L1015.661,1317.262L1015.661,1226.711C1015.661,1220.257 1014.095,1215.084 1010.963,1211.192C1007.831,1207.301 1003.417,1205.355 997.722,1205.355C991.078,1205.355 985.668,1207.633 981.491,1212.189C977.315,1216.745 975.227,1222.345 975.227,1228.989L975.227,1317.262L918.562,1317.262L918.562,1226.711C918.562,1220.257 916.995,1215.084 913.863,1211.192C910.731,1207.301 906.317,1205.355 900.622,1205.355C893.978,1205.355 888.568,1207.633 884.391,1212.189C880.215,1216.745 878.127,1222.345 878.127,1228.989L878.127,1317.262L821.462,1317.262L821.462,1166.914L867.876,1166.914L871.578,1189.409C877.273,1181.436 884.819,1175.124 894.215,1170.473C903.612,1165.822 913.531,1163.497 923.972,1163.497C946.562,1163.497 961.749,1172.134 969.532,1189.409C975.417,1181.436 982.963,1175.124 992.17,1170.473C1001.376,1165.822 1011.011,1163.497 1021.072,1163.497Z" style="fill:white;"/>
                <path d="M1305.822,1163.497C1322.907,1163.497 1335.721,1168.385 1344.263,1178.161C1352.806,1187.938 1357.077,1201.843 1357.077,1219.877L1357.077,1317.262L1300.412,1317.262L1300.412,1226.711C1300.412,1220.257 1298.846,1215.084 1295.713,1211.192C1292.581,1207.301 1288.168,1205.355 1282.473,1205.355C1275.828,1205.355 1270.418,1207.633 1266.242,1212.189C1262.065,1216.745 1259.977,1222.345 1259.977,1228.989L1259.977,1317.262L1203.312,1317.262L1203.312,1226.711C1203.312,1220.257 1201.746,1215.084 1198.614,1211.192C1195.481,1207.301 1191.068,1205.355 1185.373,1205.355C1178.729,1205.355 1173.318,1207.633 1169.142,1212.189C1164.966,1216.745 1162.877,1222.345 1162.877,1228.989L1162.877,1317.262L1106.212,1317.262L1106.212,1166.914L1152.626,1166.914L1156.328,1189.409C1162.023,1181.436 1169.569,1175.124 1178.966,1170.473C1188.363,1165.822 1198.281,1163.497 1208.722,1163.497C1231.312,1163.497 1246.499,1172.134 1254.282,1189.409C1260.167,1181.436 1267.713,1175.124 1276.92,1170.473C1286.127,1165.822 1295.761,1163.497 1305.822,1163.497Z" style="fill:white;"/>
                <path d="M1468.984,1117.937C1499.547,1117.937 1521.046,1126.621 1533.48,1143.991C1545.914,1161.361 1552.131,1186.466 1552.131,1219.308C1552.131,1252.149 1545.914,1277.254 1533.48,1294.624C1521.046,1311.994 1499.547,1320.679 1468.984,1320.679C1438.231,1320.679 1416.637,1311.994 1404.203,1294.624C1391.769,1277.254 1385.552,1252.149 1385.552,1219.308C1385.552,1186.466 1391.769,1161.361 1404.203,1143.991C1416.637,1126.621 1438.231,1117.937 1468.984,1117.937ZM1468.984,1156.378C1459.113,1156.378 1452.089,1160.175 1447.913,1167.768C1443.736,1175.361 1441.648,1187.795 1441.648,1205.07L1441.648,1233.26C1441.648,1250.725 1443.736,1263.254 1447.913,1270.848C1452.089,1278.441 1459.113,1282.238 1468.984,1282.238C1478.855,1282.238 1485.784,1278.441 1489.771,1270.848C1493.757,1263.254 1495.751,1250.725 1495.751,1233.26L1495.751,1205.07C1495.751,1187.605 1493.757,1175.124 1489.771,1167.626C1485.784,1160.127 1478.855,1156.378 1468.984,1156.378Z" style="fill:white;"/>
                <path d="M1684.54,1163.497C1702.005,1163.497 1715.103,1168.337 1723.836,1178.019C1732.568,1187.7 1736.934,1201.653 1736.934,1219.877L1736.934,1317.262L1680.269,1317.262L1680.269,1226.711C1680.269,1220.257 1678.608,1215.084 1675.286,1211.192C1671.964,1207.301 1667.265,1205.355 1661.191,1205.355C1654.167,1205.355 1648.472,1207.633 1644.106,1212.189C1639.739,1216.745 1637.556,1222.345 1637.556,1228.989L1637.556,1317.262L1580.891,1317.262L1580.891,1166.914L1627.305,1166.914L1631.007,1189.694C1636.892,1181.721 1644.628,1175.361 1654.214,1170.615C1663.801,1165.87 1673.909,1163.497 1684.54,1163.497Z" style="fill:white;"/>
            </g>
            <g transform="matrix(1,0,0,1,-380.52252,297.229647)">
                <g transform="matrix(1,0,0,1,1175.382504,51.038936)">
                    <path d="M535.572,1117.937C566.135,1117.937 587.634,1126.621 600.068,1143.991C612.502,1161.361 618.719,1186.466 618.719,1219.308C618.719,1252.149 612.502,1277.254 600.068,1294.624C587.634,1311.994 566.135,1320.679 535.572,1320.679C504.819,1320.679 483.226,1311.994 470.792,1294.624C458.357,1277.254 452.14,1252.149 452.14,1219.308C452.14,1186.466 458.357,1161.361 470.792,1143.991C483.226,1126.621 504.819,1117.937 535.572,1117.937ZM535.572,1156.378C525.701,1156.378 518.677,1160.175 514.501,1167.768C510.324,1175.361 508.236,1187.795 508.236,1205.07L508.236,1233.26C508.236,1250.725 510.324,1263.254 514.501,1270.848C518.677,1278.441 525.701,1282.238 535.572,1282.238C545.444,1282.238 552.373,1278.441 556.359,1270.848C560.346,1263.254 562.339,1250.725 562.339,1233.26L562.339,1205.07C562.339,1187.605 560.346,1175.124 556.359,1167.626C552.373,1160.127 545.444,1156.378 535.572,1156.378Z" style="fill:white;"/>
                </g>
                <g transform="matrix(-0.708509,-0.705702,0.822406,-0.825678,1797.113,3585.251755)">
                    <path d="M1691.417,1237.183C1691.417,1237.183 1713.639,1432.279 1713.639,1515.892C1713.639,1526.416 1703.682,1534.96 1691.417,1534.96C1679.152,1534.96 1669.195,1526.416 1669.195,1515.892C1669.195,1432.279 1691.417,1237.183 1691.417,1237.183Z" style="fill:rgb(227,161,58);"/>
                </g>
                <g transform="matrix(10.579475,0,0,10.579475,366.82321,1009.194839)">
                    <path d="M121.414,32.386C121.408,32.38 121.348,32.324 121.342,32.318C121.194,32.159 121.056,31.99 120.928,31.811C120.604,31.358 120.318,30.828 120.084,30.264C121.538,28.702 123.005,27.131 124.469,25.579L124.467,26.011C124.467,27.316 124.591,28.33 124.837,29.052L121.414,32.386Z" style="fill:white;"/>
                </g>
            </g>
        </g>
    </g>
</svg>
